<?xml version="1.0" encoding="UTF-8" standalone="no"?>
<!-- Created with Inkscape (http://www.inkscape.org/) -->

<svg
   xmlns:dc="http://purl.org/dc/elements/1.1/"
   xmlns:cc="http://creativecommons.org/ns#"
   xmlns:rdf="http://www.w3.org/1999/02/22-rdf-syntax-ns#"
   xmlns:svg="http://www.w3.org/2000/svg"
   xmlns="http://www.w3.org/2000/svg"
   version="1.1"
   width="512"
   height="512"
   viewBox="0 0 512 512"
   id="svg2">
  <defs
     id="defs4" />
  <metadata
     id="metadata7">
    <rdf:RDF>
      <cc:Work
         rdf:about="">
        <dc:format>image/svg+xml</dc:format>
        <dc:type
           rdf:resource="http://purl.org/dc/dcmitype/StillImage" />
        <dc:title></dc:title>
      </cc:Work>
    </rdf:RDF>
  </metadata>
  <g
     transform="translate(0,-540.3622)"
     id="layer1">
    <path
       d="M 256,0 C 114.6151,0 0,114.6151 0,256 0,397.3849 114.6151,512 256,512 397.3849,512 512,397.3849 512,256 512,114.6151 397.3849,0 256,0 z m 4.375,72.125 c 30.26922,0 58.57834,5.587945 84.90625,16.78125 22.22896,9.459131 50.06929,30.77085 68.28125,57.4375 l 23.25,-6.3125 c 0,0 -12.82252,79.95489 -34.96875,99.875 -17.85377,-23.92011 -68.25,-54.375 -68.25,-54.375 l 20.625,-10.1875 c -18.22775,-31.3542 -54.11961,-38.40625 -93.375,-38.40625 -34.21052,0 -62.88763,11.32934 -86.0625,34.03125 C 151.76403,193.67066 140.25,221.27365 140.25,253.75 c 0,33.57991 11.97437,62.04248 35.9375,85.375 23.96313,23.33253 53.53107,35 88.6875,35 22.85957,0 42.07993,-4.82071 57.6875,-14.4375 15.76522,-9.61678 28.47697,-24.66146 38.09375,-45.15625 l -100.75,0 0,-62.21875 175,0 L 435.375,267 c 0,30.42687 -7.89104,59.25742 -23.65625,86.53125 -15.76522,27.27383 -36.1833,48.09115 -61.25,62.4375 C 325.40206,430.3151 296.01882,437.5 262.28125,437.5 c -36.10235,0 -68.34136,-7.82993 -96.71875,-23.4375 -28.21974,-15.76521 -50.60277,-38.14824 -67.15625,-67.15625 -16.395827,-29.008 -24.59375,-60.29509 -24.59375,-93.875 0,-46.03443 15.198127,-86.07213 45.625,-120.125 C 155.53985,92.389641 202.51665,72.125 260.375,72.125 z"
       transform="translate(0,540.3622)"
       id="path4138"
       style="fill:#ffffff;fill-opacity:1;fill-rule:nonzero;stroke:none" />
  </g>
  <g
     id="layer3" />
</svg>
