<?xml version="1.0" encoding="UTF-8" standalone="no"?>
<!-- Created with Inkscape (http://www.inkscape.org/) -->

<svg
   xmlns:dc="http://purl.org/dc/elements/1.1/"
   xmlns:cc="http://creativecommons.org/ns#"
   xmlns:rdf="http://www.w3.org/1999/02/22-rdf-syntax-ns#"
   xmlns="http://www.w3.org/2000/svg"
   xmlns:sodipodi="http://sodipodi.sourceforge.net/DTD/sodipodi-0.dtd"
   xmlns:inkscape="http://www.inkscape.org/namespaces/inkscape"
   id="svg2"
   version="1.1"
   inkscape:version="0.48.4 r9939"
   width="292.325"
   height="56.25"
   xml:space="preserve"
   sodipodi:docname="UT_Logo_Black_EN.eps"><metadata
     id="metadata8"><rdf:RDF><cc:Work
         rdf:about=""><dc:format>image/svg+xml</dc:format><dc:type
           rdf:resource="http://purl.org/dc/dcmitype/StillImage" /><dc:title></dc:title></cc:Work></rdf:RDF></metadata><defs
     id="defs6" /><sodipodi:namedview
     pagecolor="#ffffff"
     bordercolor="#666666"
     borderopacity="1"
     objecttolerance="10"
     gridtolerance="10"
     guidetolerance="10"
     inkscape:pageopacity="0"
     inkscape:pageshadow="2"
     inkscape:window-width="640"
     inkscape:window-height="480"
     id="namedview4"
     showgrid="false"
     inkscape:zoom="1.2349268"
     inkscape:cx="146.16251"
     inkscape:cy="28.125"
     inkscape:window-x="65"
     inkscape:window-y="24"
     inkscape:window-maximized="0"
     inkscape:current-layer="g10" /><g
     id="g10"
     inkscape:groupmode="layer"
     inkscape:label="ink_ext_XXXXXX"
     transform="matrix(1.25,0,0,-1.25,0,56.25)"><g
       id="g12"
       transform="scale(0.1,0.1)"><path
         d="m 243.594,199.215 c 0,-39.367 -16.285,-51.856 -46.883,-51.856 -35.063,0 -46.699,17.422 -46.699,53.719 l 0,98.945 23.062,0 0,-97.148 c 0,-13.25 -0.867,-38.184 23.813,-38.184 20.371,0 24.019,14.805 24.019,37.161 l 0,98.171 22.688,0 0,-100.808"
         style="fill:#231f20;fill-opacity:1;fill-rule:nonzero;stroke:none"
         id="path14" /><path
         d="m 1915.71,150.023 -45.14,129.61 0,-129.61 -19.37,0 0,150 33.85,0 45.15,-129.609 0,129.609 20.77,0 0,-150 -35.26,0"
         style="fill:#231f20;fill-opacity:1;fill-rule:nonzero;stroke:none"
         id="path16" /><path
         d="m 338.305,150.023 -45.141,129.61 0,-129.61 -19.363,0 0,150 33.844,0 45.152,-129.609 0,129.609 20.773,0 0,-150 -35.265,0"
         style="fill:#231f20;fill-opacity:1;fill-rule:nonzero;stroke:none"
         id="path18" /><path
         d="m 408.523,150.023 23.2617,0 0,150 -23.2617,0 0,-150 z"
         style="fill:#231f20;fill-opacity:1;fill-rule:nonzero;stroke:none"
         id="path20" /><path
         d="m 902.988,150.023 23.2617,0 0,150 -23.2617,0 0,-150 z"
         style="fill:#231f20;fill-opacity:1;fill-rule:nonzero;stroke:none"
         id="path22" /><path
         d="m 515.844,150.023 -27.344,0 -37.91,150 24.199,0 28.449,-128.789 29.5,128.789 22.676,0 -39.57,-150"
         style="fill:#231f20;fill-opacity:1;fill-rule:nonzero;stroke:none"
         id="path24" /><path
         d="m 573.73,150.023 0,150 74.278,0 0,-17.929 -51.223,0 0,-45.742 47.903,0 0,-17.325 -47.903,0 0,-51.074 52.668,0 0,-17.93 -75.723,0"
         style="fill:#231f20;fill-opacity:1;fill-rule:nonzero;stroke:none"
         id="path26" /><path
         d="m 1748.57,150.023 0,150 74.28,0 0,-17.929 -51.22,0 0,-45.742 47.9,0 0,-17.325 -47.9,0 0,-51.074 52.67,0 0,-17.93 -75.73,0"
         style="fill:#231f20;fill-opacity:1;fill-rule:nonzero;stroke:none"
         id="path28" /><path
         d="m 2080.88,150.023 0,150 74.28,0 0,-17.929 -51.22,0 0,-45.742 47.9,0 0,-17.325 -47.9,0 0,-51.074 52.67,0 0,-17.93 -75.73,0"
         style="fill:#231f20;fill-opacity:1;fill-rule:nonzero;stroke:none"
         id="path30" /><path
         d="m 738.125,260.238 c 0,17.375 -9.184,22.246 -23.711,22.246 l -15.559,0 0,-48.027 12.122,0 c 19.875,0 27.148,5.273 27.148,25.781 z m 0.32,-110.215 c -2.113,14.375 -2.129,36.485 -2.285,39.258 -0.547,11.231 -2,18.418 -4.351,21.621 -2.754,4.004 -9.114,6.016 -19.067,6.016 l -13.887,0 0,-66.895 -23.242,0 0,150 43.125,0 c 24.809,0 42.922,-5.957 42.922,-37.968 0,-20.196 -8.183,-32.305 -24.519,-36.309 8.425,-0.691 14.238,-3.594 17.41,-8.711 2.5,-3.887 4.773,-12.82 4.773,-24.031 0,-4.277 0.903,-33.566 3.11,-42.981 l -23.989,0"
         style="fill:#231f20;fill-opacity:1;fill-rule:nonzero;stroke:none"
         id="path32" /><path
         d="m 874.531,187.797 c 0,-26.953 -14.746,-40.438 -44.211,-40.438 -32.976,0 -44.402,13.243 -44.402,44.735 l 0,1.64 23.809,0 0,-1.64 c 0,-17.813 4.566,-27.598 20.586,-27.598 13.718,0 20.585,7.149 20.585,21.445 0,12.766 -7.75,18.789 -14.328,23.067 -3.172,2.07 -7.39,4.707 -12.664,7.91 -22.148,13.633 -35.898,22.687 -35.898,47.012 0,24.824 15.359,38.945 43.945,38.945 27.371,0 41.055,-12.48 41.055,-37.461 l 0,-5.391 -23.262,0 0,3.731 c 0,14.531 -6.269,21.777 -18.848,21.777 -11.39,0 -19.265,-6.551 -19.265,-19.941 0,-14.871 10.594,-19.735 20.555,-26.152 3.457,-2.208 6.992,-4.493 10.585,-6.836 23.489,-15 31.758,-21.844 31.758,-44.805"
         style="fill:#231f20;fill-opacity:1;fill-rule:nonzero;stroke:none"
         id="path34" /><path
         d="m 1003.35,282.094 0,-132.071 -23.237,0 0,132.071 -34.629,0 0,17.929 92.496,0 0,-17.929 -34.63,0"
         style="fill:#231f20;fill-opacity:1;fill-rule:nonzero;stroke:none"
         id="path36" /><path
         d="m 1515.34,282.094 0,-132.071 -23.24,0 0,132.071 -34.63,0 0,17.929 92.5,0 0,-17.929 -34.63,0"
         style="fill:#231f20;fill-opacity:1;fill-rule:nonzero;stroke:none"
         id="path38" /><path
         d="m 2027.3,282.094 0,-132.071 -23.24,0 0,132.071 -34.63,0 0,17.929 92.5,0 0,-17.929 -34.63,0"
         style="fill:#231f20;fill-opacity:1;fill-rule:nonzero;stroke:none"
         id="path40" /><path
         d="m 1696.66,150.023 -27.14,0 -23.41,125.86 -25.9,-125.86 -27.14,0 -31.91,150 24.58,0 22.2,-125.449 25.71,125.449 27.15,0 23.65,-125.449 23.85,125.449 21.72,0 -33.36,-150"
         style="fill:#231f20;fill-opacity:1;fill-rule:nonzero;stroke:none"
         id="path42" /><path
         d="m 2200.74,158.91 c 0,-6.668 -5.42,-12.109 -12.12,-12.109 -6.71,0 -12.1,5.441 -12.1,12.109 0,6.711 5.39,12.168 12.1,12.168 6.7,0 12.12,-5.457 12.12,-12.168"
         style="fill:#231f20;fill-opacity:1;fill-rule:nonzero;stroke:none"
         id="path44" /><path
         d="m 1105.19,207.27 0,-57.254 -23.25,0 0,57.254 -39.42,92.753 25.73,0 26.97,-71.589 27.6,71.589 23.86,0 -41.49,-92.753"
         style="fill:#231f20;fill-opacity:1;fill-rule:nonzero;stroke:none"
         id="path46" /><path
         d="m 1276.44,226.371 c 0,18.117 -0.62,30.637 -1.86,37.559 -2.77,14.386 -10.18,21.574 -22.21,21.574 -11.9,0 -19.44,-7.609 -22.61,-22.824 -0.56,-2.762 -0.98,-7.196 -1.25,-13.282 -0.28,-6.082 -0.41,-13.972 -0.41,-23.652 0,-8.992 0.1,-16.531 0.31,-22.617 0.2,-6.082 0.58,-10.789 1.14,-14.109 1.24,-8.165 3.45,-14.18 6.64,-18.047 3.45,-4.289 8.85,-6.438 16.18,-6.438 12.31,0 19.78,7.746 22.41,23.242 0.55,3.184 0.97,7.95 1.25,14.317 0.27,6.359 0.41,14.453 0.41,24.277 z m 24.07,-2.695 c 0,-27.117 -2.36,-45.438 -7.06,-54.988 -6.78,-14.25 -20.68,-21.368 -41.7,-21.368 -20.06,0 -33.48,6.844 -40.26,20.535 -2.76,5.813 -4.7,13.352 -5.8,22.618 -0.83,7.062 -1.25,18.058 -1.25,32.988 0,18.125 0.62,31.262 1.87,39.426 1.66,11.211 5.18,20.058 10.58,26.562 7.75,8.985 19.57,13.485 35.48,13.485 16.18,0 28.01,-4.082 35.48,-12.246 5.53,-5.946 9.13,-14.793 10.79,-26.551 1.25,-8.164 1.87,-21.653 1.87,-40.461"
         style="fill:#231f20;fill-opacity:1;fill-rule:nonzero;stroke:none"
         id="path48" /><path
         d="m 1352.93,282.172 0,-46.063 44.4,0 0,-17.421 -44.4,0 0,-68.672 -23.03,0 0,150.007 69.92,0 0,-17.851 -46.89,0"
         style="fill:#231f20;fill-opacity:1;fill-rule:nonzero;stroke:none"
         id="path50" /></g></g></svg>