<?xml version="1.0" encoding="UTF-8" standalone="no"?>
<!-- Created with Inkscape (http://www.inkscape.org/) -->

<svg
   xmlns:dc="http://purl.org/dc/elements/1.1/"
   xmlns:cc="http://creativecommons.org/ns#"
   xmlns:rdf="http://www.w3.org/1999/02/22-rdf-syntax-ns#"
   xmlns:svg="http://www.w3.org/2000/svg"
   xmlns="http://www.w3.org/2000/svg"
   xmlns:sodipodi="http://sodipodi.sourceforge.net/DTD/sodipodi-0.dtd"
   xmlns:inkscape="http://www.inkscape.org/namespaces/inkscape"
   version="1.1"
   width="292.32501"
   height="56.25"
   id="svg2"
   xml:space="preserve"
   inkscape:version="0.48.4 r9939"
   sodipodi:docname="ut_logo_white_en.svg"><sodipodi:namedview
     pagecolor="#ffffff"
     bordercolor="#666666"
     borderopacity="1"
     objecttolerance="10"
     gridtolerance="10"
     guidetolerance="10"
     inkscape:pageopacity="0"
     inkscape:pageshadow="2"
     inkscape:window-width="640"
     inkscape:window-height="480"
     id="namedview24"
     showgrid="false"
     inkscape:zoom="1.0296758"
     inkscape:cx="146.16251"
     inkscape:cy="28.125"
     inkscape:window-x="75"
     inkscape:window-y="34"
     inkscape:window-maximized="0"
     inkscape:current-layer="svg2" /><metadata
     id="metadata8"><rdf:RDF><cc:Work
         rdf:about=""><dc:format>image/svg+xml</dc:format><dc:type
           rdf:resource="http://purl.org/dc/dcmitype/StillImage" /><dc:title></dc:title></cc:Work></rdf:RDF></metadata><defs
     id="defs6" /><g
     transform="matrix(1.25,0,0,-1.25,0,56.25)"
     id="g10"><g
       transform="scale(0.1,0.1)"
       id="g12"><path
         d="m 196.598,163.32 c -23.981,0 -24.801,23.848 -24.801,36.914 l 0,99.786 -21.785,0 0,-99.2 c 0.144,-36.554 12.332,-53.496 46.414,-53.496 30.664,0 46.441,12.071 46.586,51.61 l 0,101.086 -21.391,0 0,-98.43 c -0.023,-22.52 -3.867,-38.27 -25.023,-38.27"
         id="path14"
         style="fill:#ffffff;fill-opacity:1;fill-rule:nonzero;stroke:none" /><path
         d="m 373.164,150.008 0,150.012 -19.449,0 0,-133.379 -46.914,133.379 -32.895,0 0,-150.012 18.047,0 0,133.586 46.902,-133.586 34.309,0"
         id="path16"
         style="fill:#ffffff;fill-opacity:1;fill-rule:nonzero;stroke:none" /><path
         d="m 1951.21,150.008 0,150.012 -19.45,0 0,-133.379 -46.92,133.379 -32.89,0 0,-150.012 18.05,0 0,133.586 46.9,-133.586 34.31,0"
         id="path18"
         style="fill:#ffffff;fill-opacity:1;fill-rule:nonzero;stroke:none" /><path
         d="m 430.855,150 0,150.02 -21.992,0 0,-150.012 21.992,-0.008"
         id="path20"
         style="fill:#ffffff;fill-opacity:1;fill-rule:nonzero;stroke:none" /><path
         d="m 924.711,150 0,150.02 -21.992,0 0,-150.012 21.992,-0.008"
         id="path22"
         style="fill:#ffffff;fill-opacity:1;fill-rule:nonzero;stroke:none" /><path
         d="m 502.68,168.879 -29.36,131.141 -22.851,0 37.914,-150.012 26.445,0 39.582,150.012 -21.324,0 -30.406,-131.141"
         id="path24"
         style="fill:#ffffff;fill-opacity:1;fill-rule:nonzero;stroke:none" /><path
         d="m 648.516,166.602 -53.207,0 0,53.105 48.382,0 0,15.996 -48.382,0 0,47.703 51.746,0 0,16.614 -73.508,0 0,-150.012 74.969,0 0,16.594"
         id="path26"
         style="fill:#ffffff;fill-opacity:1;fill-rule:nonzero;stroke:none" /><path
         d="m 1824.39,166.602 -53.2,0 0,53.105 48.38,0 0,15.996 -48.38,0 0,47.703 51.74,0 0,16.614 -73.51,0 0,-150.012 74.97,0 0,16.594"
         id="path28"
         style="fill:#ffffff;fill-opacity:1;fill-rule:nonzero;stroke:none" /><path
         d="m 2156.66,166.602 -53.21,0 0,53.105 48.38,0 0,15.996 -48.38,0 0,47.703 51.75,0 0,16.614 -73.52,0 0,-150.012 74.98,0 0,16.594"
         id="path30"
         style="fill:#ffffff;fill-opacity:1;fill-rule:nonzero;stroke:none" /><path
         d="m 738.457,260.586 c 0.027,-20.938 -7.996,-26.785 -28.18,-26.809 l -12.992,0 0,50.032 16.465,0 c 14.805,-0.032 24.684,-5.325 24.707,-23.223 z m -6.519,-49.387 c 2.515,-3.594 3.968,-10.859 4.531,-22.246 0.14,-2.82 0.191,-24.488 2.207,-38.945 l 22.637,0 c -2.102,10.547 -2.95,38.39 -2.95,42.656 0,11.215 -2.316,20.188 -4.715,23.887 -3.14,4.844 -10.347,8.613 -18.746,9.297 17.715,3.105 25.821,17.14 25.821,36.574 0,31.933 -17.754,37.598 -42.586,37.598 l -42.824,0 0,-150.012 21.972,0 0,67.57 14.789,0 c 10.114,0 16.797,-1.992 19.864,-6.379"
         id="path32"
         style="fill:#ffffff;fill-opacity:1;fill-rule:nonzero;stroke:none" /><path
         d="m 785.609,191.746 c 0.172,-31.617 11.012,-44.258 44.102,-44.422 29.519,-0.148 43.785,13.172 43.894,40.086 0.09,22.949 -7.98,29.367 -31.734,44.61 -3.656,2.343 -7.207,4.691 -10.695,6.914 -9.965,6.367 -21.117,11.554 -21.117,27.031 0,13.879 8.418,20.898 20.218,20.918 13.059,0.019 19.782,-7.871 19.805,-22.75 l 0,-3.012 21.973,0 0,4.688 c -0.102,24.921 -13.285,36.972 -40.711,37.101 -28.617,0.125 -43.535,-13.879 -43.617,-38.613 -0.086,-24.18 13.468,-32.981 35.886,-46.836 5.297,-3.281 9.59,-5.891 12.809,-7.996 6.648,-4.367 14.848,-10.695 14.828,-23.938 -0.02,-14.679 -7.395,-22.394 -21.559,-22.414 -16.625,-0.027 -21.539,10.617 -21.554,28.633 l 0,0.91 -22.528,0 0,-0.91"
         id="path34"
         style="fill:#ffffff;fill-opacity:1;fill-rule:nonzero;stroke:none" /><path
         d="m 2005.22,283.406 0,-133.398 21.96,0 0,133.398 34.99,-0.008 0,16.622 -91.94,0 0,-16.614 34.99,0 z m -512.64,0 0,-133.398 21.96,0 0,133.398 34.99,-0.008 0,16.622 -91.94,0 0,-16.614 34.99,0 z m -513.076,0 0,-133.398 21.956,0 0,133.398 34.99,-0.008 0,16.622 -91.938,0 0,-16.614 34.992,0"
         id="path36"
         style="fill:#ffffff;fill-opacity:1;fill-rule:nonzero;stroke:none" /><path
         d="m 1646.43,278.438 24.15,-128.43 26.18,0 33.35,150.012 -20.37,0 -24.72,-127.129 -24.51,127.129 -26.19,0 -26.59,-127.129 -23.07,127.129 -23.25,0 31.92,-150.012 26.17,0 26.93,128.43"
         id="path38"
         style="fill:#ffffff;fill-opacity:1;fill-rule:nonzero;stroke:none" /><path
         d="m 2200.1,158.242 c 0,-6.34 -5.14,-11.484 -11.48,-11.484 -6.34,0 -11.48,5.144 -11.48,11.484 0,6.336 5.14,11.473 11.48,11.473 6.34,0 11.48,-5.137 11.48,-11.473"
         id="path40"
         style="fill:#ffffff;fill-opacity:1;fill-rule:nonzero;stroke:none" /><path
         d="m 1081.22,207.07 0,-57.062 21.96,0 0,57.062 41.49,92.95 -22.4,0 -28.41,-73.704 -27.75,73.704 -24.31,0 39.42,-92.95 0,0"
         id="path42"
         style="fill:#ffffff;fill-opacity:1;fill-rule:nonzero;stroke:none" /><path
         d="m 1250.29,163.152 c -7.53,-0.019 -13.26,2.219 -16.94,6.778 l 0,0 c -3.33,4.074 -5.58,10.265 -6.86,18.578 l 0,0 c -0.57,3.406 -0.94,8.191 -1.16,14.344 l 0,0 c -0.2,6.152 -0.31,13.769 -0.31,22.863 l 0,0 c 0,9.781 0.15,17.762 0.41,23.933 l 0,0 c 0.28,6.153 0.7,10.665 1.29,13.528 l 0,0 c 3.17,15.523 11.17,23.687 23.57,23.648 l 0,0 c 12.52,0.059 20.41,-7.676 23.18,-22.39 l 0,0 c 1.27,-7.098 1.9,-19.766 1.9,-38.094 l 0,0 c 0,-9.914 -0.15,-18.098 -0.43,-24.535 l 0,0 c -0.29,-6.453 -0.71,-11.278 -1.27,-14.559 l 0,0 c -2.6,-15.754 -10.51,-24.094 -23.23,-24.094 l 0,0 c -0.04,0 -0.09,0 -0.15,0 l 0,0 z m -35.24,126.407 c -5.33,-6.426 -8.86,-15.204 -10.52,-26.434 l 0,0 c -1.26,-8.176 -1.89,-21.437 -1.89,-39.719 l 0,0 c 0,-15.058 0.42,-26.14 1.26,-33.222 l 0,0 c 1.11,-9.297 3.04,-16.836 5.79,-22.586 l 0,0 c 6.72,-13.535 19.87,-20.293 39.97,-20.325 l 0,0 c 21.09,0.032 34.73,7.063 41.45,21.145 l 0,0 c 4.64,9.414 7.05,27.883 7.03,55.215 l 0,0 c 0,18.984 -0.63,32.586 -1.87,40.75 l 0,0 c -1.65,11.777 -5.27,20.547 -10.7,26.406 l 0,0 c -7.35,8.039 -19.05,12.109 -35.28,12.109 l 0,0 c -15.93,0 -27.6,-4.48 -35.24,-13.339 l 0,0"
         id="path44"
         style="fill:#ffffff;fill-opacity:1;fill-rule:nonzero;stroke:none" /><path
         d="m 1329.33,149.988 21.75,0 0,69.356 44.84,0 0,16.086 -44.84,0 0,48.035 47.34,0 0,16.523 -69.09,0 0,-150"
         id="path46"
         style="fill:#ffffff;fill-opacity:1;fill-rule:nonzero;stroke:none" /></g></g></svg>